<mxfile host="app.diagrams.net" modified="2023-08-28T13:22:30.653Z" agent="Mozilla/5.0 (Windows NT 10.0; Win64; x64) AppleWebKit/537.36 (KHTML, like Gecko) Chrome/116.0.0.0 Safari/537.36" etag="_FflYhLHxUaE8T07VKjL" version="21.6.9" type="github" pages="2">
  <diagram name="第 1 页" id="d3vi1sWccdzA6fBNOHMS">
    <mxGraphModel dx="1571" dy="447" grid="1" gridSize="10" guides="1" tooltips="1" connect="1" arrows="1" fold="1" page="1" pageScale="1" pageWidth="827" pageHeight="1169" background="none" math="0" shadow="0">
      <root>
        <mxCell id="0" />
        <mxCell id="1" parent="0" />
        <mxCell id="i326ms37xsc7baXjEQZ6-3" value="&lt;font data-font-src=&quot;https://fonts.googleapis.com/css?family=Architects+Daughter&quot; face=&quot;Architects Daughter&quot;&gt;Kappa&lt;/font&gt;" style="line;strokeWidth=2;html=1;hachureGap=4;fontFamily=Comic Sans MS;fontSize=20;shadow=0;verticalAlign=middle;align=center;fontColor=#3783e6;" parent="1" vertex="1">
          <mxGeometry x="-760" y="100" width="680" height="10" as="geometry" />
        </mxCell>
        <mxCell id="i326ms37xsc7baXjEQZ6-13" value="" style="rounded=0;whiteSpace=wrap;html=1;strokeColor=default;dashed=1;dashPattern=1 2;" parent="1" vertex="1">
          <mxGeometry x="-760" y="160" width="160" height="320" as="geometry" />
        </mxCell>
        <mxCell id="i326ms37xsc7baXjEQZ6-14" value="" style="rounded=0;whiteSpace=wrap;html=1;strokeColor=default;dashed=1;dashPattern=1 2;" parent="1" vertex="1">
          <mxGeometry x="-580" y="200" width="230" height="240" as="geometry" />
        </mxCell>
        <mxCell id="i326ms37xsc7baXjEQZ6-15" value="" style="rounded=0;whiteSpace=wrap;html=1;strokeColor=#6d0303;dashed=1;dashPattern=1 2;" parent="1" vertex="1">
          <mxGeometry x="-330" y="160" width="140" height="320" as="geometry" />
        </mxCell>
        <mxCell id="i326ms37xsc7baXjEQZ6-16" value="Ingestion Layer" style="text;html=1;strokeColor=none;fillColor=none;align=center;verticalAlign=middle;whiteSpace=wrap;rounded=0;fontFamily=Architects Daughter;fontSource=https%3A%2F%2Ffonts.googleapis.com%2Fcss%3Ffamily%3DArchitects%2BDaughter;fontSize=16;fontColor=#95f702;" parent="1" vertex="1">
          <mxGeometry x="-760" y="160" width="160" height="30" as="geometry" />
        </mxCell>
        <mxCell id="i326ms37xsc7baXjEQZ6-17" value="Speed Layer" style="text;html=1;strokeColor=none;fillColor=none;align=center;verticalAlign=middle;whiteSpace=wrap;rounded=0;fontFamily=Architects Daughter;fontSource=https%3A%2F%2Ffonts.googleapis.com%2Fcss%3Ffamily%3DArchitects%2BDaughter;fontSize=16;fontColor=#ff0000;" parent="1" vertex="1">
          <mxGeometry x="-570" y="200" width="100" height="30" as="geometry" />
        </mxCell>
        <mxCell id="i326ms37xsc7baXjEQZ6-18" value="Serving Layer" style="text;html=1;strokeColor=none;fillColor=none;align=center;verticalAlign=middle;whiteSpace=wrap;rounded=0;fontFamily=Architects Daughter;fontSource=https%3A%2F%2Ffonts.googleapis.com%2Fcss%3Ffamily%3DArchitects%2BDaughter;fontSize=16;fontColor=#002aff;" parent="1" vertex="1">
          <mxGeometry x="-320" y="160" width="120" height="30" as="geometry" />
        </mxCell>
        <mxCell id="i326ms37xsc7baXjEQZ6-21" value="service1" style="rounded=1;whiteSpace=wrap;html=1;strokeColor=default;dashed=1;glass=0;" parent="1" vertex="1">
          <mxGeometry x="-750" y="230" width="60" height="20" as="geometry" />
        </mxCell>
        <mxCell id="i326ms37xsc7baXjEQZ6-22" value="service2" style="rounded=1;whiteSpace=wrap;html=1;strokeColor=default;dashed=1;glass=0;" parent="1" vertex="1">
          <mxGeometry x="-670" y="230" width="60" height="20" as="geometry" />
        </mxCell>
        <mxCell id="i326ms37xsc7baXjEQZ6-34" value="DB" style="strokeWidth=1;html=1;shape=mxgraph.flowchart.database;whiteSpace=wrap;" parent="1" vertex="1">
          <mxGeometry x="-735" y="380" width="30" height="30" as="geometry" />
        </mxCell>
        <mxCell id="i326ms37xsc7baXjEQZ6-43" value="" style="strokeWidth=1;html=1;shape=mxgraph.flowchart.direct_data;whiteSpace=wrap;fillColor=#d5e8d4;strokeColor=#82b366;fillStyle=hatch;sketch=1;curveFitting=1;jiggle=2;" parent="1" vertex="1">
          <mxGeometry x="-745" y="300" width="130" height="50" as="geometry" />
        </mxCell>
        <mxCell id="i326ms37xsc7baXjEQZ6-47" value="" style="strokeWidth=1;html=1;shape=mxgraph.flowchart.direct_data;whiteSpace=wrap;fillColor=#d5e8d4;strokeColor=#82b366;fillStyle=hatch;sketch=1;curveFitting=1;jiggle=2;" parent="1" vertex="1">
          <mxGeometry x="-510" y="300" width="130" height="50" as="geometry" />
        </mxCell>
        <mxCell id="i326ms37xsc7baXjEQZ6-48" value="DB" style="strokeWidth=1;html=1;shape=mxgraph.flowchart.database;whiteSpace=wrap;" parent="1" vertex="1">
          <mxGeometry x="-695" y="390" width="30" height="30" as="geometry" />
        </mxCell>
        <mxCell id="i326ms37xsc7baXjEQZ6-49" value="DB" style="strokeWidth=1;html=1;shape=mxgraph.flowchart.database;whiteSpace=wrap;" parent="1" vertex="1">
          <mxGeometry x="-655" y="380" width="30" height="30" as="geometry" />
        </mxCell>
        <mxCell id="i326ms37xsc7baXjEQZ6-66" value="" style="curved=1;endArrow=classic;html=1;rounded=0;" parent="1" edge="1">
          <mxGeometry width="50" height="50" relative="1" as="geometry">
            <mxPoint x="-615" y="320" as="sourcePoint" />
            <mxPoint x="-515" y="320" as="targetPoint" />
            <Array as="points">
              <mxPoint x="-545" y="300" />
              <mxPoint x="-595" y="350" />
            </Array>
          </mxGeometry>
        </mxCell>
        <mxCell id="i326ms37xsc7baXjEQZ6-67" value="" style="strokeWidth=1;html=1;shape=mxgraph.flowchart.database;whiteSpace=wrap;shadow=1;" parent="1" vertex="1">
          <mxGeometry x="-510" y="370" width="130" height="30" as="geometry" />
        </mxCell>
        <mxCell id="i326ms37xsc7baXjEQZ6-72" value="" style="endArrow=classic;html=1;rounded=0;edgeStyle=orthogonalEdgeStyle;curved=1;exitX=0.603;exitY=0.99;exitDx=0;exitDy=0;exitPerimeter=0;" parent="1" source="i326ms37xsc7baXjEQZ6-47" edge="1">
          <mxGeometry width="50" height="50" relative="1" as="geometry">
            <mxPoint x="-480" y="360" as="sourcePoint" />
            <mxPoint x="-450" y="370" as="targetPoint" />
            <Array as="points">
              <mxPoint x="-432" y="355" />
              <mxPoint x="-449" y="355" />
              <mxPoint x="-449" y="370" />
            </Array>
          </mxGeometry>
        </mxCell>
        <mxCell id="i326ms37xsc7baXjEQZ6-74" value="" style="endArrow=classic;html=1;rounded=1;strokeColor=#520000;" parent="1" edge="1">
          <mxGeometry width="50" height="50" relative="1" as="geometry">
            <mxPoint x="-550" y="420" as="sourcePoint" />
            <mxPoint x="-400" y="420" as="targetPoint" />
          </mxGeometry>
        </mxCell>
        <mxCell id="i326ms37xsc7baXjEQZ6-75" value="t" style="text;html=1;strokeColor=none;fillColor=none;align=center;verticalAlign=middle;whiteSpace=wrap;rounded=0;fontColor=#740202;" parent="1" vertex="1">
          <mxGeometry x="-423" y="410" width="20" height="10" as="geometry" />
        </mxCell>
        <mxCell id="i326ms37xsc7baXjEQZ6-76" value="FLINK" style="text;html=1;strokeColor=none;fillColor=none;align=center;verticalAlign=middle;whiteSpace=wrap;rounded=0;" parent="1" vertex="1">
          <mxGeometry x="-500" y="240" width="60" height="30" as="geometry" />
        </mxCell>
        <mxCell id="i326ms37xsc7baXjEQZ6-78" value="KAFKA" style="text;html=1;strokeColor=none;fillColor=none;align=center;verticalAlign=middle;whiteSpace=wrap;rounded=0;" parent="1" vertex="1">
          <mxGeometry x="-765" y="280" width="60" height="30" as="geometry" />
        </mxCell>
        <mxCell id="i326ms37xsc7baXjEQZ6-79" value="MQ/API" style="text;html=1;strokeColor=none;fillColor=none;align=center;verticalAlign=middle;whiteSpace=wrap;rounded=0;" parent="1" vertex="1">
          <mxGeometry x="-310" y="225" width="60" height="30" as="geometry" />
        </mxCell>
        <mxCell id="i326ms37xsc7baXjEQZ6-80" value="ELK" style="text;html=1;strokeColor=none;fillColor=none;align=center;verticalAlign=middle;whiteSpace=wrap;rounded=0;" parent="1" vertex="1">
          <mxGeometry x="-310" y="270" width="60" height="30" as="geometry" />
        </mxCell>
        <mxCell id="i326ms37xsc7baXjEQZ6-81" value="REDIS" style="text;html=1;strokeColor=none;fillColor=none;align=center;verticalAlign=middle;whiteSpace=wrap;rounded=0;" parent="1" vertex="1">
          <mxGeometry x="-310" y="310" width="60" height="30" as="geometry" />
        </mxCell>
        <mxCell id="i326ms37xsc7baXjEQZ6-64" value="" style="endArrow=classicThin;html=1;rounded=0;endFill=1;edgeStyle=orthogonalEdgeStyle;elbow=vertical;curved=1;" parent="1" edge="1">
          <mxGeometry width="50" height="50" relative="1" as="geometry">
            <mxPoint x="-715.0000000000002" y="250" as="sourcePoint" />
            <mxPoint x="-695.0000000000002" y="300" as="targetPoint" />
            <Array as="points">
              <mxPoint x="-695" y="250" />
            </Array>
          </mxGeometry>
        </mxCell>
        <mxCell id="i326ms37xsc7baXjEQZ6-85" value="" style="group" parent="1" vertex="1" connectable="0">
          <mxGeometry x="-240" y="220" width="100" height="40" as="geometry" />
        </mxCell>
        <mxCell id="i326ms37xsc7baXjEQZ6-82" value="" style="ellipse;whiteSpace=wrap;html=1;" parent="i326ms37xsc7baXjEQZ6-85" vertex="1">
          <mxGeometry x="10" width="80" height="40" as="geometry" />
        </mxCell>
        <mxCell id="i326ms37xsc7baXjEQZ6-84" value="Real Time&lt;br style=&quot;font-size: 10px;&quot;&gt;View" style="text;html=1;strokeColor=none;fillColor=none;align=center;verticalAlign=middle;whiteSpace=wrap;rounded=0;fontFamily=Architects Daughter;fontSource=https%3A%2F%2Ffonts.googleapis.com%2Fcss%3Ffamily%3DArchitects%2BDaughter;fontSize=10;fontColor=#002aff;" parent="i326ms37xsc7baXjEQZ6-85" vertex="1">
          <mxGeometry y="5" width="100" height="30" as="geometry" />
        </mxCell>
        <mxCell id="i326ms37xsc7baXjEQZ6-86" value="" style="group" parent="1" vertex="1" connectable="0">
          <mxGeometry x="-240" y="390" width="100" height="40" as="geometry" />
        </mxCell>
        <mxCell id="i326ms37xsc7baXjEQZ6-87" value="" style="ellipse;whiteSpace=wrap;html=1;" parent="i326ms37xsc7baXjEQZ6-86" vertex="1">
          <mxGeometry x="10" width="80" height="40" as="geometry" />
        </mxCell>
        <mxCell id="i326ms37xsc7baXjEQZ6-88" value="Batch&lt;br style=&quot;font-size: 10px;&quot;&gt;View" style="text;html=1;strokeColor=none;fillColor=none;align=center;verticalAlign=middle;whiteSpace=wrap;rounded=0;fontFamily=Architects Daughter;fontSource=https%3A%2F%2Ffonts.googleapis.com%2Fcss%3Ffamily%3DArchitects%2BDaughter;fontSize=10;fontColor=#002aff;" parent="i326ms37xsc7baXjEQZ6-86" vertex="1">
          <mxGeometry y="5" width="100" height="30" as="geometry" />
        </mxCell>
        <mxCell id="i326ms37xsc7baXjEQZ6-92" value="" style="group" parent="1" vertex="1" connectable="0">
          <mxGeometry x="-140" y="390" width="60" height="50" as="geometry" />
        </mxCell>
        <mxCell id="kv2BuFgPz3xZ0--leqhU-4" value="" style="group" parent="i326ms37xsc7baXjEQZ6-92" vertex="1" connectable="0">
          <mxGeometry width="60" height="50" as="geometry" />
        </mxCell>
        <mxCell id="i326ms37xsc7baXjEQZ6-89" value="" style="rounded=1;whiteSpace=wrap;html=1;dashed=1;" parent="kv2BuFgPz3xZ0--leqhU-4" vertex="1">
          <mxGeometry width="60" height="50" as="geometry" />
        </mxCell>
        <mxCell id="i326ms37xsc7baXjEQZ6-91" value="Batch&lt;br style=&quot;font-size: 10px;&quot;&gt;Access" style="text;html=1;strokeColor=none;fillColor=none;align=center;verticalAlign=middle;whiteSpace=wrap;rounded=0;fontFamily=Architects Daughter;fontSource=https%3A%2F%2Ffonts.googleapis.com%2Fcss%3Ffamily%3DArchitects%2BDaughter;fontSize=10;fontColor=#8e8e90;" parent="kv2BuFgPz3xZ0--leqhU-4" vertex="1">
          <mxGeometry y="10" width="60" height="30" as="geometry" />
        </mxCell>
        <mxCell id="i326ms37xsc7baXjEQZ6-93" value="" style="group" parent="1" vertex="1" connectable="0">
          <mxGeometry x="-140" y="220" width="60" height="50" as="geometry" />
        </mxCell>
        <mxCell id="i326ms37xsc7baXjEQZ6-94" value="" style="rounded=1;whiteSpace=wrap;html=1;dashed=1;" parent="i326ms37xsc7baXjEQZ6-93" vertex="1">
          <mxGeometry width="60" height="50" as="geometry" />
        </mxCell>
        <mxCell id="i326ms37xsc7baXjEQZ6-95" value="Real Time&lt;br style=&quot;font-size: 10px;&quot;&gt;Access" style="text;html=1;strokeColor=none;fillColor=none;align=center;verticalAlign=middle;whiteSpace=wrap;rounded=0;fontFamily=Architects Daughter;fontSource=https%3A%2F%2Ffonts.googleapis.com%2Fcss%3Ffamily%3DArchitects%2BDaughter;fontSize=10;fontColor=#757575;" parent="i326ms37xsc7baXjEQZ6-93" vertex="1">
          <mxGeometry y="10" width="60" height="30" as="geometry" />
        </mxCell>
        <mxCell id="kv2BuFgPz3xZ0--leqhU-1" value="users" style="sketch=0;outlineConnect=0;gradientColor=none;fontColor=#545B64;strokeColor=none;fillColor=#879196;dashed=0;verticalLabelPosition=bottom;verticalAlign=top;align=center;html=1;fontSize=12;fontStyle=0;aspect=fixed;shape=mxgraph.aws4.illustration_users;pointerEvents=1" parent="1" vertex="1">
          <mxGeometry x="-110" y="310" width="20" height="20" as="geometry" />
        </mxCell>
        <mxCell id="kv2BuFgPz3xZ0--leqhU-6" value="MPP/NOSQL" style="text;html=1;strokeColor=none;fillColor=none;align=center;verticalAlign=middle;whiteSpace=wrap;rounded=0;" parent="1" vertex="1">
          <mxGeometry x="-310" y="380" width="60" height="30" as="geometry" />
        </mxCell>
        <mxCell id="77dUme39tHr9iUe4YeBP-1" value="" style="endArrow=classicThin;html=1;rounded=0;endFill=1;edgeStyle=orthogonalEdgeStyle;elbow=vertical;curved=1;" edge="1" parent="1">
          <mxGeometry width="50" height="50" relative="1" as="geometry">
            <mxPoint x="-650" y="250" as="sourcePoint" />
            <mxPoint x="-670" y="300" as="targetPoint" />
            <Array as="points">
              <mxPoint x="-670.0000000000002" y="250" />
            </Array>
          </mxGeometry>
        </mxCell>
        <mxCell id="77dUme39tHr9iUe4YeBP-2" value="" style="endArrow=classic;html=1;rounded=0;" edge="1" parent="1">
          <mxGeometry width="50" height="50" relative="1" as="geometry">
            <mxPoint x="-720" y="380" as="sourcePoint" />
            <mxPoint x="-690" y="350" as="targetPoint" />
          </mxGeometry>
        </mxCell>
        <mxCell id="77dUme39tHr9iUe4YeBP-3" value="" style="endArrow=classic;html=1;rounded=0;entryX=0.5;entryY=1;entryDx=0;entryDy=0;entryPerimeter=0;exitX=0.5;exitY=0;exitDx=0;exitDy=0;exitPerimeter=0;" edge="1" parent="1" source="i326ms37xsc7baXjEQZ6-48" target="i326ms37xsc7baXjEQZ6-43">
          <mxGeometry width="50" height="50" relative="1" as="geometry">
            <mxPoint x="-690" y="390" as="sourcePoint" />
            <mxPoint x="-660" y="360" as="targetPoint" />
          </mxGeometry>
        </mxCell>
        <mxCell id="77dUme39tHr9iUe4YeBP-4" value="" style="endArrow=classic;html=1;rounded=0;entryX=0.602;entryY=1.016;entryDx=0;entryDy=0;entryPerimeter=0;exitX=0.5;exitY=0;exitDx=0;exitDy=0;exitPerimeter=0;" edge="1" parent="1" source="i326ms37xsc7baXjEQZ6-49">
          <mxGeometry width="50" height="50" relative="1" as="geometry">
            <mxPoint x="-643.46" y="379.2" as="sourcePoint" />
            <mxPoint x="-670" y="349.99999999999994" as="targetPoint" />
          </mxGeometry>
        </mxCell>
        <mxCell id="77dUme39tHr9iUe4YeBP-5" value="&lt;font style=&quot;font-size: 11px;&quot;&gt;CDC&lt;/font&gt;" style="text;html=1;strokeColor=none;fillColor=none;align=center;verticalAlign=middle;whiteSpace=wrap;rounded=0;fontSize=10;" vertex="1" parent="1">
          <mxGeometry x="-735" y="360" width="25" height="20" as="geometry" />
        </mxCell>
        <mxCell id="77dUme39tHr9iUe4YeBP-7" value="&lt;font style=&quot;font-size: 11px;&quot;&gt;CDC&lt;/font&gt;" style="text;html=1;strokeColor=none;fillColor=none;align=center;verticalAlign=middle;whiteSpace=wrap;rounded=0;fontSize=10;" vertex="1" parent="1">
          <mxGeometry x="-695" y="360" width="25" height="20" as="geometry" />
        </mxCell>
        <mxCell id="77dUme39tHr9iUe4YeBP-8" value="&lt;font style=&quot;font-size: 11px;&quot;&gt;CDC&lt;/font&gt;" style="text;html=1;strokeColor=none;fillColor=none;align=center;verticalAlign=middle;whiteSpace=wrap;rounded=0;fontSize=10;" vertex="1" parent="1">
          <mxGeometry x="-655" y="360" width="25" height="20" as="geometry" />
        </mxCell>
        <mxCell id="77dUme39tHr9iUe4YeBP-9" value="" style="curved=1;endArrow=classic;html=1;rounded=0;" edge="1" parent="1">
          <mxGeometry width="50" height="50" relative="1" as="geometry">
            <mxPoint x="-403" y="320" as="sourcePoint" />
            <mxPoint x="-303" y="320" as="targetPoint" />
            <Array as="points">
              <mxPoint x="-333" y="300" />
              <mxPoint x="-383" y="350" />
            </Array>
          </mxGeometry>
        </mxCell>
      </root>
    </mxGraphModel>
  </diagram>
  <diagram id="w4jM6P_mXXEUZm0jU_z9" name="第 2 页">
    <mxGraphModel dx="1562" dy="905" grid="1" gridSize="10" guides="1" tooltips="1" connect="1" arrows="1" fold="1" page="1" pageScale="1" pageWidth="827" pageHeight="1169" math="0" shadow="0">
      <root>
        <mxCell id="0" />
        <mxCell id="1" parent="0" />
      </root>
    </mxGraphModel>
  </diagram>
</mxfile>
